<?xml version="1.0" encoding="UTF-8"?>
<svg version="1.1" xmlns="http://www.w3.org/2000/svg" width="1024" height="1024">
<path d="M0 0 C1.11117187 -0.01675781 2.22234375 -0.03351563 3.3671875 -0.05078125 C12.97066758 0.87762171 21.50887194 5.0860388 30.1875 9.0625 C31.45140203 9.63590458 32.71556911 10.20872527 33.97998047 10.78100586 C37.34126059 12.30424293 40.69900168 13.83512204 44.05584717 15.36810303 C47.505782 16.94271267 50.95802747 18.51223883 54.41015625 20.08203125 C55.79842428 20.71337219 57.18668925 21.34471985 58.57495117 21.97607422 C59.60705215 22.44542389 59.60705215 22.44542389 60.66000366 22.92425537 C62.75836733 23.87880632 64.85637113 24.834145 66.9543457 25.78955078 C77.77088474 30.71264562 88.62248812 35.55373669 99.48828125 40.3671875 C106.35606137 43.41073588 113.20985937 46.48504821 120.0625 49.5625 C130.26408049 54.1429003 140.47821499 58.6942264 150.69995117 63.22946167 C164.10155336 69.1757914 177.48618223 75.1572511 190.83911133 81.2121582 C197.31096935 84.14570157 203.79132193 87.05777621 210.2890625 89.93359375 C212.28192503 90.81795179 214.27464952 91.70262033 216.2673645 92.58731079 C217.52906184 93.14595963 218.79163232 93.70264142 220.05514526 94.25717163 C235.31858263 100.95630343 235.31858263 100.95630343 238.5625 105.1875 C239.38638749 108.29996386 239.06749038 110.23369808 238.125 113.3125 C234.62548374 117.39291579 230.91955007 119.70791285 226.07421875 121.86328125 C225.41541214 122.16695114 224.75660553 122.47062103 224.07783508 122.78349304 C221.99400035 123.74114627 219.90355823 124.6832404 217.8125 125.625 C216.38950723 126.27567296 214.96697593 126.92735613 213.54492188 127.58007812 C210.07683953 129.16927942 206.60275036 130.74457585 203.125 132.3125 C202.91539281 144.42229269 202.75601363 156.53164572 202.65869045 168.64289093 C202.6119517 174.26828111 202.54867776 179.89241977 202.44604492 185.51708984 C202.34741344 190.95724062 202.29426761 196.39619678 202.27110481 201.83717346 C202.25462391 203.90070883 202.22244368 205.96418741 202.17342949 208.02720642 C201.88858262 220.52692828 202.86446329 229.47325227 209.94300842 239.99377441 C217.80659685 251.95399113 218.96053046 267.23281561 216.44140625 281.06640625 C213.46784381 291.51705931 208.62759459 299.72905459 199.125 305.3125 C191.50818205 309.15731824 184.67571172 309.04053948 176.61328125 306.41015625 C168.37873337 302.77764769 162.67856322 295.10789152 159.125 287.04296875 C153.6908982 271.28929862 156.19712229 254.95735613 162.7890625 240.015625 C164.03976053 237.48497285 165.4148385 235.10140861 166.875 232.6875 C171.76694818 224.09031929 170.27392074 212.91462692 170.2578125 203.328125 C170.25848776 201.89947493 170.25945964 200.47082497 170.26071167 199.04217529 C170.26217626 196.06700533 170.26007297 193.09186563 170.25537109 190.11669922 C170.24965365 186.31511168 170.25297337 182.51359444 170.25894356 178.71200943 C170.26256501 175.76940383 170.26140366 172.82681479 170.25881577 169.88420868 C170.25815196 168.48245994 170.25895568 167.08070966 170.26129532 165.67896271 C170.26385024 163.71989472 170.25926225 161.76082141 170.25439453 159.80175781 C170.25359894 158.69052551 170.25280334 157.57929321 170.25198364 156.43438721 C170.12516516 153.31656047 169.70575932 150.3755109 169.125 147.3125 C159.06521528 150.98510186 149.3407454 155.26557027 139.59692383 159.69458008 C136.03403266 161.31407606 132.46757238 162.92564228 128.90130615 164.53768921 C127.11454617 165.3454179 125.3279643 166.15354071 123.54156494 166.96206665 C116.5831766 170.11045407 109.60939296 173.2221778 102.625 176.3125 C94.10044007 180.08683434 85.59416878 183.89950371 77.09765625 187.73646545 C68.57638469 191.58424854 60.04734385 195.41456823 51.51568604 199.23925781 C49.21937486 200.27013263 46.92465711 201.30447105 44.63037109 202.33984375 C41.21873307 203.87820711 37.80114417 205.40248341 34.37832642 206.915802 C32.57787727 207.71541333 30.78329421 208.5281938 28.98901367 209.34155273 C19.09059579 213.68852292 8.55578965 217.1566426 -2.375 216.25 C-3.4784375 216.17652344 -4.581875 216.10304688 -5.71875 216.02734375 C-18.38248127 214.19624551 -29.67847519 208.95998645 -41.125 203.5625 C-43.36271713 202.51611323 -45.60174154 201.47268891 -47.8427124 200.43328857 C-49.22265011 199.79238799 -50.60055876 199.14709559 -51.97613525 198.49688721 C-55.28355164 196.85423827 -55.28355164 196.85423827 -58.875 196.3125 C-58.875 195.6525 -58.875 194.9925 -58.875 194.3125 C-59.3999707 194.15249512 -59.92494141 193.99249023 -60.46582031 193.82763672 C-66.76062468 191.82874096 -72.65182046 189.2408172 -78.625 186.4375 C-80.77552918 185.44030029 -82.9265936 184.44425425 -85.078125 183.44921875 C-86.19638672 182.93149902 -87.31464844 182.4137793 -88.46679688 181.88037109 C-94.08457204 179.29603355 -99.72933463 176.77269088 -105.375 174.25 C-107.82951023 173.15252913 -110.28396568 172.05493726 -112.73828125 170.95703125 C-113.37790298 170.67095001 -114.01752472 170.38486877 -114.67652893 170.09011841 C-119.92784709 167.73988317 -125.17354568 165.37729437 -130.41796875 163.01171875 C-146.44180857 155.78524474 -162.47353158 148.58049499 -178.5625 141.5 C-200.80265642 131.70611907 -200.80265642 131.70611907 -208.94082642 128.08218384 C-210.73542376 127.28426965 -212.53209639 126.49102796 -214.32885742 125.69799805 C-234.07428923 116.88631082 -234.07428923 116.88631082 -236.6875 111.75 C-236.88992898 108.03880199 -236.85031452 106.44008132 -234.875 103.3125 C-230.52183832 99.26091277 -226.3170208 96.87577844 -220.875 94.5625 C-219.08957149 93.78056929 -217.30444252 92.99795444 -215.51953125 92.21484375 C-214.49166504 91.76737793 -213.46379883 91.31991211 -212.40478516 90.85888672 C-205.92851101 88.02165332 -199.48059116 85.12072888 -193.02828979 82.22949219 C-190.54415228 81.11678157 -188.05939837 80.00545857 -185.57446289 78.89453125 C-175.31076368 74.3052286 -165.05655883 69.69546669 -154.8125 65.0625 C-132.22790454 54.84922645 -109.59705856 44.73920922 -86.97070312 34.61889648 C-78.43315912 30.8000838 -69.896206 26.97996705 -61.36206055 23.15356445 C-59.02144633 22.10440132 -56.68047117 21.05604302 -54.33911133 20.00854492 C-48.86561908 17.55835792 -43.39683272 15.09874067 -37.94029236 12.61105347 C-35.28817509 11.40267491 -32.63382319 10.1992509 -29.97927856 8.99621582 C-28.72154107 8.42454791 -27.46488727 7.85048848 -26.20944214 7.27380371 C-17.43143662 3.24238586 -9.80121554 0.0339534 0 0 Z " fill="#FE6A58" transform="translate(531.875,139.6875)"/>
<path d="M0 0 C3.71986063 0.04975512 7.43950163 0.07569413 11.15962124 0.09643078 C14.07610729 0.11695944 16.99219172 0.15487421 19.90843391 0.19729042 C21.93366846 0.22252271 23.95910127 0.22988797 25.98448181 0.23661804 C43.34673579 0.55385731 58.62554872 6.81565355 71.10083008 18.89526367 C86.27895761 35.03661853 90.47532565 56.68122339 95.94458008 77.43041992 C96.59655301 79.88781533 97.24898546 82.34508886 97.90185547 84.80224609 C99.25540979 89.90072278 100.60527785 95.00016062 101.95239258 100.1003418 C103.65642663 106.55062235 105.37215783 112.99771875 107.09178162 119.44386292 C108.3998633 124.34852141 109.70453182 129.25408323 111.0083313 134.15988159 C111.63124811 136.50221043 112.2551659 138.84427329 112.88009644 141.18606567 C113.7476719 144.43974281 114.61045571 147.69465252 115.47192383 150.94995117 C115.73054199 151.91604309 115.98916016 152.88213501 116.25561523 153.87750244 C116.48804932 154.75968445 116.7204834 155.64186646 116.95996094 156.55078125 C117.16342636 157.31675125 117.36689178 158.08272125 117.57652283 158.87190247 C118.00708008 160.86791992 118.00708008 160.86791992 118.00708008 163.86791992 C118.66708008 164.19791992 119.32708008 164.52791992 120.00708008 164.86791992 C120.50325012 166.84077454 120.50325012 166.84077454 120.88916016 169.48632812 C122.09780882 176.77096151 123.99242178 183.84716498 125.89379883 190.97338867 C126.27802069 192.42467324 126.66195082 193.87603507 127.04560852 195.32746887 C127.849003 198.3630773 128.65531396 201.39789058 129.46386719 204.43212891 C130.47943002 208.24378158 131.48858657 212.05709372 132.49587822 215.87093925 C134.43110953 223.19598535 136.38649511 230.51520949 138.3724041 237.82668877 C139.57022786 242.23832796 140.74083862 246.65646888 141.90405273 251.07739258 C142.48497573 253.21243049 143.06738489 255.34706484 143.65161133 257.48120117 C143.89094894 258.41659225 144.13028656 259.35198334 144.37687683 260.3157196 C146.66817736 268.4819228 150.93334241 275.06375486 158.06958008 279.80541992 C166.12690201 284.27147836 175.23402131 285.72253632 184.38208008 284.36791992 C187.94114589 283.87701429 190.51453397 284.20267304 194.00708008 284.86791992 C194.66708008 284.53791992 195.32708008 284.20791992 196.00708008 283.86791992 C197.34320881 284.18986541 198.67605222 284.5254966 200.00708008 284.86791992 C201.83867011 284.95929254 203.67321357 284.99857566 205.50708008 285.00073242 C206.55895508 285.00202148 207.61083008 285.00331055 208.69458008 285.00463867 C209.78770508 285.00077148 210.88083008 284.9969043 212.00708008 284.99291992 C213.64676758 284.9987207 213.64676758 284.9987207 215.31958008 285.00463867 C216.89739258 285.00270508 216.89739258 285.00270508 218.50708008 285.00073242 C219.46614258 284.99960449 220.42520508 284.99847656 221.41333008 284.99731445 C223.95309692 284.95601667 223.95309692 284.95601667 226.13598633 284.32836914 C228.00708008 283.86791992 228.00708008 283.86791992 231.44458008 284.36791992 C234.79112891 284.83761099 236.77984385 284.58508353 240.00708008 283.86791992 C240.99708008 284.19791992 241.98708008 284.52791992 243.00708008 284.86791992 C245.64324771 284.96471225 248.24673915 285.00716501 250.88208008 284.99291992 C251.58977539 284.99678711 252.2974707 285.0006543 253.02661133 285.00463867 C255.84445521 284.99939129 258.52842608 284.97283039 261.28833008 284.36791992 C264.69174398 283.74200472 267.92933604 283.73812072 271.38989258 283.73510742 C272.08597626 283.7341507 272.78205994 283.73319397 273.49923706 283.73220825 C274.96327811 283.73153062 276.42732222 283.73335573 277.89135742 283.73754883 C280.1318229 283.74291931 282.3720894 283.73758145 284.61254883 283.73120117 C286.03833052 283.73186171 287.46411209 283.73314237 288.88989258 283.73510742 C290.1829834 283.73623535 291.47607422 283.73736328 292.80834961 283.73852539 C296.00708008 283.86791992 296.00708008 283.86791992 299.00708008 284.86791992 C301.28033385 284.70046108 303.49916521 284.35979219 305.75317383 284.02416992 C308.00708008 283.86791992 308.00708008 283.86791992 309.69482422 284.34985352 C312.90514449 285.06913338 315.96863368 284.99786649 319.25708008 285.00073242 C320.29977051 285.00216751 320.29977051 285.00216751 321.36352539 285.00363159 C322.82934663 285.00431037 324.29517091 285.00247722 325.76098633 284.99829102 C327.99933653 284.99293844 330.23748609 284.99824621 332.47583008 285.00463867 C333.90291385 285.00397784 335.3299975 285.00269656 336.75708008 285.00073242 C338.05129883 284.99960449 339.34551758 284.99847656 340.67895508 284.99731445 C343.36222427 284.89299134 345.44906268 284.55010963 348.00708008 283.86791992 C348.33708008 284.19791992 348.66708008 284.52791992 349.00708008 284.86791992 C349.93520508 284.70291992 350.86333008 284.53791992 351.81958008 284.36791992 C356.24053809 283.64019021 360.42260135 284.18765865 364.84692383 284.71166992 C367.96635864 284.8659065 370.80667767 284.51440973 373.89013672 284.0769043 C377.53455538 283.71712776 381.11743778 284.06407767 384.75708008 284.36791992 C389.05444561 284.71918284 392.80541747 284.92971192 397.00708008 283.86791992 C398.34491401 284.18270438 399.67911717 284.51379648 401.00708008 284.86791992 C401.66708008 284.53791992 402.32708008 284.20791992 403.00708008 283.86791992 C404.22395508 284.05354492 405.44083008 284.23916992 406.69458008 284.43041992 C417.11298317 285.69071062 428.3300956 283.96790525 437.00708008 277.86791992 C443.72143415 272.31223757 447.57552028 263.11899523 448.81958008 254.61791992 C448.88145508 253.71041992 448.94333008 252.80291992 449.00708008 251.86791992 C449.66708008 251.86791992 450.32708008 251.86791992 451.00708008 251.86791992 C451.17700974 251.22223053 451.34693939 250.57654114 451.52201843 249.9112854 C454.48606834 238.82782314 458.05589427 227.94471612 461.59423828 217.03393555 C462.41167489 214.50491471 463.22319488 211.9739739 464.02880859 209.44116211 C465.2020803 205.75339545 466.39357833 202.0719589 467.58911133 198.39135742 C467.94246048 197.26925873 468.29580963 196.14716003 468.65986633 194.99105835 C471.66135671 185.86450805 475.2331352 177.54735719 484.00708008 172.86791992 C489.50415278 171.03556235 495.97355253 170.69065722 501.43286133 172.80932617 C506.78289073 176.02337396 510.56715951 179.77382781 512.50708008 185.80541992 C513.25942753 190.08036925 512.5681442 193.1757065 511.32080078 197.30883789 C510.9491983 198.54720398 510.57759583 199.78557007 510.19473267 201.0614624 C508.33719343 207.01492408 506.43793506 212.95202401 504.48754883 218.87573242 C504.06145518 220.17538817 503.63554097 221.47510277 503.20979309 222.77487183 C502.32319172 225.47962291 501.43477054 228.18376675 500.54492188 230.88745117 C499.42579106 234.28810871 498.31081213 237.69011 497.19701004 241.09251595 C494.49032972 249.3587915 491.75868047 257.61646903 489.00708008 265.86791992 C488.65995972 266.91268494 488.31283936 267.95744995 487.9552002 269.03387451 C487.03367839 271.79471811 486.09953836 274.5508609 485.15942383 277.30541992 C484.90347946 278.07475861 484.6475351 278.84409729 484.38383484 279.63674927 C478.36422704 297.02781307 465.20986774 310.67100065 449.13208008 319.24291992 C436.90970285 324.78574966 425.27042684 326.4657861 411.97509766 326.4296875 C410.42592287 326.4400626 408.87675872 326.45214134 407.32760906 326.46576118 C403.14392581 326.49759667 398.96051967 326.50524511 394.77672958 326.50817943 C390.31376686 326.51544182 385.8509432 326.54508084 381.38806152 326.57167053 C372.8148495 326.6189696 364.24171163 326.64469316 355.66839039 326.6614278 C348.78714574 326.67505836 341.90595929 326.69596193 335.02474976 326.72174072 C310.32395856 326.81325697 285.62338043 326.85921668 260.92242432 326.86617279 C257.04683625 326.86733782 253.17125135 326.8699035 249.29566461 326.87324876 C233.90323194 326.88644873 218.51186275 326.86146825 203.11974716 326.75866318 C200.3435355 326.74305461 197.56741766 326.73578108 194.79116821 326.73086548 C190.54087197 326.7219214 186.29150421 326.68843371 182.04154968 326.63424492 C180.56362626 326.61870901 179.08559415 326.61072492 177.60758972 326.61210823 C160.2550912 326.61390947 145.38334137 321.45209412 131.00708008 311.86791992 C131.00708008 311.20791992 131.00708008 310.54791992 131.00708008 309.86791992 C130.44504883 309.63459961 129.88301758 309.4012793 129.30395508 309.16088867 C113.17837941 300.08339625 107.3848159 278.21334133 102.63623047 261.87646484 C102.05256158 259.82604244 102.05256158 259.82604244 101.00708008 257.86791992 C100.69947447 256.43927814 100.4222651 255.00402458 100.16113281 253.56616211 C98.92169781 247.19249451 97.24061181 240.96052686 95.54223633 234.69604492 C95.19355712 233.40084852 94.84515097 232.10557858 94.49699402 230.8102417 C93.55536014 227.3102773 92.60963527 223.81143056 91.66304016 220.31280518 C90.86211865 217.35063322 90.06354014 214.3878317 89.26496696 211.42502594 C86.73080887 202.02320258 84.1889516 192.62346997 81.64484406 183.22433472 C81.01556651 180.89927565 80.38650044 178.57415947 79.75750732 176.24902344 C75.16394592 159.26895001 70.55962576 142.29185911 65.93566322 125.32003784 C63.56444772 116.61591285 61.20796749 107.90806402 58.87182617 99.19445801 C57.59510126 94.43704853 56.31035397 89.68182868 55.02404785 84.92700195 C54.43862747 82.75517006 53.85687973 80.58234419 53.2791748 78.40844727 C52.49246973 75.44951078 51.69271436 72.4943925 50.88989258 69.53979492 C50.55983719 68.27761139 50.55983719 68.27761139 50.22311401 66.9899292 C47.7137934 57.87030033 44.31252037 49.07641638 36.00708008 43.86791992 C31.81428393 41.80143112 28.01188249 41.57987429 23.42211914 41.59667969 C22.67506714 41.59145294 21.92801514 41.5862262 21.1583252 41.58084106 C19.54164979 41.57062823 17.92494176 41.56482541 16.30823517 41.56295967 C13.74283161 41.55928336 11.17781029 41.54252071 8.61248779 41.52220154 C1.32058855 41.46692165 -5.97136717 41.43617784 -13.26342773 41.41162109 C-17.73026249 41.39567498 -22.19682682 41.36538017 -26.66352081 41.32685661 C-28.35861574 41.31526598 -30.05375919 41.30927679 -31.74889374 41.30917549 C-53.44213354 41.30740961 -53.44213354 41.30740961 -61.61401367 33.59057617 C-65.11237274 29.22010493 -65.18750177 24.27493173 -64.93041992 18.86791992 C-64.04091618 12.14492649 -61.19621082 7.62155961 -55.93041992 3.43041992 C-40.97284719 -4.52573579 -16.68787396 -0.22782046 0 0 Z " fill="#2BC7D7" transform="translate(222.992919921875,316.132080078125)"/>
<path d="M0 0 C4.50813762 0.5635172 7.93798772 1.73890569 12 3.75 C19.4722758 7.35780279 27.06598328 10.65934896 34.6875 13.9375 C46.17719581 18.88857186 57.63206711 23.91359896 69.0625 29 C69.81936096 29.33667694 70.57622192 29.67335388 71.35601807 30.02023315 C79.9074732 33.8255543 88.45109137 37.64793572 96.98565674 41.49098206 C103.31739151 44.3416529 109.65730625 47.17379971 116 50 C117.39702148 50.62672607 117.39702148 50.62672607 118.82226562 51.26611328 C138.71815092 60.15427139 156.5213707 65.71489496 177.93798828 57.93237305 C180.95973604 56.70928467 183.95067288 55.43101905 186.9375 54.125 C188.042146 53.65030273 189.14679199 53.17560547 190.28491211 52.68652344 C200.16363572 48.4195011 209.97497089 44.00013959 219.78149414 39.5703125 C227.47606544 36.10210186 235.21180151 32.80387465 243.03833008 29.64770508 C246.63892167 28.17038744 250.16120016 26.5593257 253.6796875 24.89453125 C262.43570126 20.77668221 271.2393551 16.76622894 280.05664062 12.78149414 C281.87475456 11.95862949 283.69178885 11.13337578 285.5078125 10.3059082 C288.16426746 9.09569809 290.82390166 7.89275185 293.484375 6.69140625 C294.70299225 6.13375328 294.70299225 6.13375328 295.94622803 5.56483459 C296.69841614 5.2270549 297.45060425 4.88927521 298.22558594 4.54125977 C299.21362213 4.09327782 299.21362213 4.09327782 300.22161865 3.63624573 C302 3 302 3 305 3 C305.09313132 11.67604847 305.16398175 20.35192195 305.20724869 29.02836323 C305.22802623 33.05823373 305.25616097 37.08775948 305.30175781 41.11743164 C305.34557062 45.01431297 305.36921083 48.91086502 305.37950897 52.80797386 C305.38683741 54.2865841 305.40114622 55.76517856 305.42292023 57.24364662 C305.58397879 68.64444695 304.38886173 79.11126197 296.83203125 88.17578125 C272.0068396 112.89510855 219.05022774 117.47627433 186 120 C185.30036133 120.05639648 184.60072266 120.11279297 183.87988281 120.17089844 C153.26354264 122.55201279 122.71762985 120.79872076 92.48193359 115.67700195 C91.20141113 115.46132568 89.92088867 115.24564941 88.6015625 115.0234375 C86.90507568 114.72832275 86.90507568 114.72832275 85.17431641 114.42724609 C82.07249688 114.00975769 79.1253285 113.92273674 76 114 C76 113.34 76 112.68 76 112 C74.92363281 111.89945312 73.84726562 111.79890625 72.73828125 111.6953125 C67.07424908 110.9815574 61.66935725 109.4314574 56.1875 107.875 C55.09034668 107.5644165 53.99319336 107.25383301 52.86279297 106.93383789 C13.39321449 95.5473895 13.39321449 95.5473895 4 80 C1.98299137 75.86788703 1.73450598 72.44884097 1.69702148 67.87060547 C1.68858215 67.17243713 1.68014282 66.4742688 1.67144775 65.75494385 C1.64576438 63.45901775 1.63355262 61.16322 1.62109375 58.8671875 C1.60491096 57.26725253 1.58773014 55.66732737 1.56959534 54.06741333 C1.52398478 49.86334772 1.4891385 45.65926885 1.45739746 41.45507812 C1.40544878 34.71895901 1.34036308 27.98298409 1.26918221 21.24704361 C1.24635809 18.89443493 1.23008345 16.54184459 1.21446228 14.18917847 C1.20105597 12.74965207 1.1874412 11.3101276 1.17358398 9.87060547 C1.16407211 8.61327606 1.15456024 7.35594666 1.14476013 6.06051636 C1.13658265 2.95799342 1.13658265 2.95799342 0 0 Z " fill="#FE6A58" transform="translate(376,317)"/>
<path d="M0 0 C1.37961914 0.0146228 1.37961914 0.0146228 2.78710938 0.02954102 C16.8096202 0.39445286 28.22140956 5.92643808 38.046875 15.89453125 C46.63170037 26.14145627 51.0444596 37.03091908 50.8125 50.375 C50.80387939 51.16334229 50.79525879 51.95168457 50.78637695 52.76391602 C50.55989819 67.46375562 50.55989819 67.46375562 48.21484375 69.90625 C47.69019531 70.4115625 47.16554688 70.916875 46.625 71.4375 C45.87796697 72.77070858 45.17246697 74.12766926 44.5 75.5 C38.03616495 87.33112665 28.1292554 95.35555324 15.5 99.875 C1.18868269 103.80126401 -12.85374786 101.88895395 -26.0625 95.25 C-38.17842475 87.91375199 -46.31641981 77.42738258 -49.88671875 63.671875 C-53.2526121 48.26954702 -50.81558134 34.8014345 -42.375 21.4375 C-31.98425841 7.22425762 -17.51260332 -0.20902349 0 0 Z " fill="#2BC7D8" transform="translate(619.375,667.5625)"/>
<path d="M0 0 C1.5287374 1.15629023 3.05084317 2.32146754 4.5625 3.5 C5.449375 4.098125 6.33625 4.69625 7.25 5.3125 C17.66066762 15.16042883 22.45311028 28.30589508 22.875 42.375 C22.58315959 55.79965891 17.69113326 68.94446419 8.40234375 78.76171875 C-3.47195719 89.98053811 -16.33108899 94.1753618 -32.44140625 93.7421875 C-45.63909005 93.10879902 -57.6034559 87.50992355 -66.625 77.79296875 C-76.47243458 65.33511509 -80.0344768 52.18172342 -79.29296875 36.4296875 C-77.73725813 23.6078967 -70.98910428 12.04295487 -61.4375 3.5 C-43.90163359 -10.18588672 -18.76803728 -12.75897271 0 0 Z " fill="#2BC7D8" transform="translate(447.4375,675.5)"/>
<path d="M0 0 C-0.02997826 1.73195618 -0.02997826 1.73195618 -0.06056213 3.49890137 C-0.24393292 14.44243856 -0.37836021 25.38565944 -0.46630955 36.33039093 C-0.5130483 41.95578111 -0.57632224 47.57991977 -0.67895508 53.20458984 C-0.77758656 58.64474062 -0.83073239 64.08369678 -0.85389519 69.52467346 C-0.87037609 71.58820883 -0.90255632 73.65168741 -0.95157051 75.71470642 C-1.23641738 88.21442828 -0.26053671 97.16075227 6.81800842 107.68127441 C14.68159685 119.64149113 15.83553046 134.92031561 13.31640625 148.75390625 C10.34284381 159.20455931 5.50259459 167.41655459 -4 173 C-11.61681795 176.84481824 -18.44928828 176.72803948 -26.51171875 174.09765625 C-34.74626663 170.46514769 -40.44643678 162.79539152 -44 154.73046875 C-49.4341018 138.97679862 -46.92787771 122.64485613 -40.3359375 107.703125 C-39.08523947 105.17247285 -37.7101615 102.78890861 -36.25 100.375 C-31.36792069 91.7963091 -32.85104049 80.65294407 -32.8671875 71.0859375 C-32.86651209 69.66207869 -32.8655401 68.23821999 -32.86428833 66.81436157 C-32.86282345 63.84758392 -32.86492732 60.8808366 -32.86962891 57.9140625 C-32.87533594 54.13060794 -32.87203332 50.34722419 -32.86605644 46.5637722 C-32.86242691 43.62966385 -32.8636002 40.69557204 -32.86618423 37.76146317 C-32.86684635 36.36694963 -32.86605039 34.97243454 -32.86370468 33.57792282 C-32.85458055 26.63377571 -32.90552024 19.86576827 -34 13 C-33.3002002 12.72889404 -32.60040039 12.45778809 -31.87939453 12.1784668 C-28.84000022 10.93451594 -25.89306208 9.55989823 -22.9296875 8.14453125 C-21.21458984 7.33532227 -21.21458984 7.33532227 -19.46484375 6.50976562 C-17.66160286 5.65719961 -15.85838755 4.80452897 -14.06005859 3.94165039 C-12.31255634 3.10443407 -10.55869838 2.28052449 -8.8046875 1.45703125 C-7.76296387 0.96178955 -6.72124023 0.46654785 -5.64794922 -0.04370117 C-3 -1 -3 -1 0 0 Z " fill="#FEC84C" transform="translate(735,272)"/>
<path d="M0 0 C0.70954834 0.16226074 1.41909668 0.32452148 2.15014648 0.49169922 C5.03150764 1.00561971 7.67335963 1.12935442 10.59765625 1.1328125 C11.64630859 1.13410156 12.69496094 1.13539063 13.77539062 1.13671875 C14.86013672 1.13285156 15.94488281 1.12898437 17.0625 1.125 C18.15111328 1.12886719 19.23972656 1.13273438 20.36132812 1.13671875 C21.40869141 1.13542969 22.45605469 1.13414062 23.53515625 1.1328125 C24.487854 1.13168457 25.44055176 1.13055664 26.42211914 1.12939453 C28.94824332 1.08745619 28.94824332 1.08745619 31.12670898 0.46044922 C33 0 33 0 36.4375 0.5 C39.78404883 0.96969106 41.77276377 0.71716361 45 0 C45.99 0.33 46.98 0.66 48 1 C50.63616763 1.09679233 53.23965907 1.13924509 55.875 1.125 C56.93654297 1.13080078 56.93654297 1.13080078 58.01953125 1.13671875 C60.83737513 1.13147137 63.521346 1.10491047 66.28125 0.5 C69.68466391 -0.1259152 72.92225596 -0.1297992 76.3828125 -0.1328125 C77.07889618 -0.13376923 77.77497986 -0.13472595 78.49215698 -0.13571167 C79.95619803 -0.13638931 81.42024215 -0.13456419 82.88427734 -0.13037109 C85.12474282 -0.12500062 87.36500932 -0.13033847 89.60546875 -0.13671875 C91.03125044 -0.13605821 92.45703201 -0.13477755 93.8828125 -0.1328125 C95.17590332 -0.13168457 96.46899414 -0.13055664 97.80126953 -0.12939453 C101 0 101 0 104 1 C106.27325378 0.83254116 108.49208513 0.49187227 110.74609375 0.15625 C113 0 113 0 114.68774414 0.48193359 C117.89806442 1.20121346 120.9615536 1.12994657 124.25 1.1328125 C125.29269043 1.13424759 125.29269043 1.13424759 126.35644531 1.13571167 C127.82226655 1.13639044 129.28809083 1.1345573 130.75390625 1.13037109 C132.99225645 1.12501852 135.23040601 1.13032629 137.46875 1.13671875 C138.89583377 1.13605791 140.32291742 1.13477664 141.75 1.1328125 C143.04421875 1.13168457 144.3384375 1.13055664 145.671875 1.12939453 C148.35514419 1.02507142 150.44198261 0.68218971 153 0 C153.33 0.33 153.66 0.66 154 1 C154.928125 0.835 155.85625 0.67 156.8125 0.5 C160.29252261 -0.07284323 163.43343155 0.14515763 166.9375 0.5 C171.05191222 0.9063617 174.55423456 0.86918565 178.65234375 0.19921875 C184.35001508 -0.28427749 190.35110246 0.20583959 196 1 C196.99 1.99 196.99 1.99 198 3 C132 3 66 3 -2 3 C-1.34 2.01 -0.68 1.02 0 0 Z " fill="#2DB4C4" transform="translate(418,600)"/>
<path d="M0 0 C0.66 0.33 1.32 0.66 2 1 C-7.51260448 7.0718752 -16.44867421 7.28491116 -27.5625 7.125 C-28.76197266 7.11597656 -29.96144531 7.10695313 -31.19726562 7.09765625 C-34.13172309 7.07427412 -37.06575234 7.0415028 -40 7 C-40 6.01 -40 5.02 -40 4 C-38.88625 4.185625 -37.7725 4.37125 -36.625 4.5625 C-33.17431139 5.31680657 -33.17431139 5.31680657 -31 4 C-29.783125 4.185625 -28.56625 4.37125 -27.3125 4.5625 C-18.01320587 5.72302779 -8.38454377 4.09477719 0 0 Z " fill="#2DB6C5" transform="translate(657,596)"/>
<path d="M0 0 C0 0.33 0 0.66 0 1 C-6.6 1 -13.2 1 -20 1 C-20 0.67 -20 0.34 -20 0 C-18.07575754 -0.23631048 -16.15141909 -0.47187014 -14.2265625 -0.703125 C-12.24561809 -0.96725092 -10.27712166 -1.32121461 -8.3125 -1.6875 C-4.82160251 -2.01682995 -3.0785565 -1.58592305 0 0 Z " fill="#28B1C1" transform="translate(415,602)"/>
<path d="M0 0 C1 4 1 4 1 4 Z " fill="#F89F53" transform="translate(735,274)"/>
<path d="" fill="#37C0CF" transform="translate(0,0)"/>
<path d="M0 0 C0.66 0 1.32 0 2 0 C1.67 0.66 1.34 1.32 1 2 C0.67 1.34 0.34 0.68 0 0 Z " fill="#39C1CF" transform="translate(313,539)"/>
<path d="" fill="#39C1D1" transform="translate(0,0)"/>
<path d="M0 0 C3 1 3 1 3 1 Z " fill="#F3715E" transform="translate(507,438)"/>
<path d="M0 0 C3 1 3 1 3 1 Z " fill="#EE6D5A" transform="translate(312,232)"/>
<path d="M0 0 C2 1 2 1 2 1 Z " fill="#38C0CE" transform="translate(436,767)"/>
<path d="M0 0 C2 1 2 1 2 1 Z " fill="#37C1CE" transform="translate(569,736)"/>
<path d="" fill="#34C4D1" transform="translate(0,0)"/>
<path d="" fill="#35C6D7" transform="translate(0,0)"/>
<path d="M0 0 C2 1 2 1 2 1 Z " fill="#37CFDE" transform="translate(593,672)"/>
<path d="M0 0 C2 1 2 1 2 1 Z " fill="#37CCDB" transform="translate(393,672)"/>
<path d="" fill="#38C1CF" transform="translate(0,0)"/>
<path d="" fill="#37C1CF" transform="translate(0,0)"/>
<path d="" fill="#3EC5D2" transform="translate(0,0)"/>
<path d="" fill="#38C0CF" transform="translate(0,0)"/>
<path d="" fill="#3BC2CF" transform="translate(0,0)"/>
<path d="" fill="#42C2CE" transform="translate(0,0)"/>
<path d="" fill="#3FC3CF" transform="translate(0,0)"/>
<path d="" fill="#39C1D0" transform="translate(0,0)"/>
<path d="" fill="#39C3D1" transform="translate(0,0)"/>
<path d="" fill="#39C2D0" transform="translate(0,0)"/>
<path d="M0 0 C2 1 2 1 2 1 Z " fill="#F5715F" transform="translate(524,439)"/>
<path d="M0 0 C2 1 2 1 2 1 Z " fill="#F17360" transform="translate(555,438)"/>
<path d="M0 0 C2 1 2 1 2 1 Z " fill="#F4715F" transform="translate(515,438)"/>
<path d="M0 0 C2 1 2 1 2 1 Z " fill="#F27160" transform="translate(484,436)"/>
<path d="M0 0 C2 1 2 1 2 1 Z " fill="#F57961" transform="translate(636,423)"/>
<path d="M0 0 C2 1 2 1 2 1 Z " fill="#EE7765" transform="translate(419,422)"/>
<path d="M0 0 C2 1 2 1 2 1 Z " fill="#F47F62" transform="translate(660,414)"/>
<path d="" fill="#37C4D4" transform="translate(0,0)"/>
<path d="" fill="#39C6D6" transform="translate(0,0)"/>
<path d="" fill="#4EC2CB" transform="translate(0,0)"/>
<path d="" fill="#4DC1CC" transform="translate(0,0)"/>
<path d="" fill="#4DBFCA" transform="translate(0,0)"/>
<path d="M0 0 C2 1 2 1 2 1 Z " fill="#FA715E" transform="translate(584,360)"/>
<path d="M0 0 C2 1 2 1 2 1 Z " fill="#37C4D4" transform="translate(219,358)"/>
<path d="M0 0 C2 1 2 1 2 1 Z " fill="#F9755E" transform="translate(656,328)"/>
<path d="" fill="#F8BA50" transform="translate(0,0)"/>
<path d="M0 0 C2 1 2 1 2 1 Z " fill="#FB805F" transform="translate(684,294)"/>
<path d="" fill="#F7AE53" transform="translate(0,0)"/>
<path d="M0 0 C2 1 2 1 2 1 Z " fill="#F57562" transform="translate(363,287)"/>
<path d="M0 0 C2 1 2 1 2 1 Z " fill="#E67766" transform="translate(305,261)"/>
<path d="M0 0 C2 1 2 1 2 1 Z " fill="#F46E58" transform="translate(401,192)"/>
<path d="M0 0 C2 1 2 1 2 1 Z " fill="#F36E58" transform="translate(473,160)"/>
<path d="" fill="#3A4242" transform="translate(0,0)"/>
<path d="" fill="#3BB7C3" transform="translate(0,0)"/>
<path d="" fill="#3AC0CC" transform="translate(0,0)"/>
<path d="" fill="#36BECE" transform="translate(0,0)"/>
<path d="" fill="#37BDCA" transform="translate(0,0)"/>
<path d="" fill="#39BBC5" transform="translate(0,0)"/>
<path d="" fill="#3EB8C6" transform="translate(0,0)"/>
<path d="" fill="#3ABCC6" transform="translate(0,0)"/>
<path d="" fill="#37BECA" transform="translate(0,0)"/>
<path d="" fill="#38BFCD" transform="translate(0,0)"/>
<path d="" fill="#39BBC9" transform="translate(0,0)"/>
<path d="" fill="#37B8C6" transform="translate(0,0)"/>
<path d="" fill="#39BDCA" transform="translate(0,0)"/>
<path d="" fill="#37BAC7" transform="translate(0,0)"/>
<path d="" fill="#37C0CF" transform="translate(0,0)"/>
<path d="" fill="#37C1CE" transform="translate(0,0)"/>
<path d="" fill="#38BECE" transform="translate(0,0)"/>
<path d="" fill="#38B9C8" transform="translate(0,0)"/>
<path d="" fill="#34C2D5" transform="translate(0,0)"/>
<path d="" fill="#37C2D0" transform="translate(0,0)"/>
<path d="" fill="#36C8D8" transform="translate(0,0)"/>
<path d="" fill="#37C7D8" transform="translate(0,0)"/>
<path d="" fill="#37C0D2" transform="translate(0,0)"/>
<path d="" fill="#37C8D8" transform="translate(0,0)"/>
<path d="" fill="#37C4D3" transform="translate(0,0)"/>
<path d="" fill="#3AC4D1" transform="translate(0,0)"/>
<path d="" fill="#34C6D5" transform="translate(0,0)"/>
<path d="" fill="#35C7D4" transform="translate(0,0)"/>
<path d="" fill="#36C9D9" transform="translate(0,0)"/>
<path d="" fill="#3AC7D4" transform="translate(0,0)"/>
<path d="" fill="#3ACBDD" transform="translate(0,0)"/>
<path d="" fill="#39CEDD" transform="translate(0,0)"/>
<path d="" fill="#39CAD9" transform="translate(0,0)"/>
<path d="" fill="#37CBDB" transform="translate(0,0)"/>
<path d="" fill="#3AC8D7" transform="translate(0,0)"/>
<path d="" fill="#39CAD7" transform="translate(0,0)"/>
<path d="" fill="#39C4D2" transform="translate(0,0)"/>
<path d="" fill="#35C1CF" transform="translate(0,0)"/>
<path d="" fill="#39C5D3" transform="translate(0,0)"/>
<path d="" fill="#33BECD" transform="translate(0,0)"/>
<path d="" fill="#35C2D0" transform="translate(0,0)"/>
<path d="" fill="#3AC1CF" transform="translate(0,0)"/>
<path d="" fill="#36BFCE" transform="translate(0,0)"/>
<path d="" fill="#35BFD0" transform="translate(0,0)"/>
<path d="" fill="#40CAD6" transform="translate(0,0)"/>
<path d="" fill="#3FCBD6" transform="translate(0,0)"/>
<path d="" fill="#42C7D5" transform="translate(0,0)"/>
<path d="" fill="#41CBD8" transform="translate(0,0)"/>
<path d="" fill="#3AC0CF" transform="translate(0,0)"/>
<path d="" fill="#36CBD8" transform="translate(0,0)"/>
<path d="" fill="#37C4D1" transform="translate(0,0)"/>
<path d="" fill="#39C8D8" transform="translate(0,0)"/>
<path d="" fill="#38C2CE" transform="translate(0,0)"/>
<path d="" fill="#3BC0CD" transform="translate(0,0)"/>
<path d="" fill="#3BC5D5" transform="translate(0,0)"/>
<path d="" fill="#39C1CF" transform="translate(0,0)"/>
<path d="" fill="#3ABECF" transform="translate(0,0)"/>
<path d="" fill="#3AC2D1" transform="translate(0,0)"/>
<path d="" fill="#40C5D3" transform="translate(0,0)"/>
<path d="" fill="#3CC6D3" transform="translate(0,0)"/>
<path d="" fill="#3FC3D1" transform="translate(0,0)"/>
<path d="" fill="#3BC2CE" transform="translate(0,0)"/>
<path d="" fill="#39C1CE" transform="translate(0,0)"/>
<path d="" fill="#3EC5D3" transform="translate(0,0)"/>
<path d="" fill="#40C2CB" transform="translate(0,0)"/>
<path d="" fill="#3DBFCD" transform="translate(0,0)"/>
<path d="" fill="#3EC2D0" transform="translate(0,0)"/>
<path d="" fill="#3FC3D4" transform="translate(0,0)"/>
<path d="" fill="#4DC0C9" transform="translate(0,0)"/>
<path d="" fill="#3AC0D0" transform="translate(0,0)"/>
<path d="" fill="#42C2D0" transform="translate(0,0)"/>
<path d="" fill="#38C2D0" transform="translate(0,0)"/>
<path d="" fill="#54B9B9" transform="translate(0,0)"/>
<path d="" fill="#6CBBB5" transform="translate(0,0)"/>
<path d="" fill="#5FBCBA" transform="translate(0,0)"/>
<path d="" fill="#67C0BD" transform="translate(0,0)"/>
<path d="" fill="#39BFD0" transform="translate(0,0)"/>
<path d="" fill="#39C2CE" transform="translate(0,0)"/>
<path d="" fill="#39C3CF" transform="translate(0,0)"/>
<path d="" fill="#3BC1CE" transform="translate(0,0)"/>
<path d="" fill="#37C3D1" transform="translate(0,0)"/>
<path d="" fill="#49C3CB" transform="translate(0,0)"/>
<path d="" fill="#F3725E" transform="translate(0,0)"/>
<path d="" fill="#F5715D" transform="translate(0,0)"/>
<path d="" fill="#F27261" transform="translate(0,0)"/>
<path d="" fill="#F17160" transform="translate(0,0)"/>
<path d="" fill="#F27361" transform="translate(0,0)"/>
<path d="" fill="#F17360" transform="translate(0,0)"/>
<path d="" fill="#F47361" transform="translate(0,0)"/>
<path d="" fill="#F1725E" transform="translate(0,0)"/>
<path d="" fill="#F2705C" transform="translate(0,0)"/>
<path d="" fill="#F07261" transform="translate(0,0)"/>
<path d="" fill="#3CC0D1" transform="translate(0,0)"/>
<path d="" fill="#F2BB5B" transform="translate(0,0)"/>
<path d="" fill="#F47561" transform="translate(0,0)"/>
<path d="" fill="#F17563" transform="translate(0,0)"/>
<path d="" fill="#F3B958" transform="translate(0,0)"/>
<path d="" fill="#EE7764" transform="translate(0,0)"/>
<path d="" fill="#F4BB59" transform="translate(0,0)"/>
<path d="" fill="#EE7564" transform="translate(0,0)"/>
<path d="" fill="#EC7465" transform="translate(0,0)"/>
<path d="" fill="#3AC5D2" transform="translate(0,0)"/>
<path d="" fill="#4AC1CD" transform="translate(0,0)"/>
<path d="" fill="#3FC4D1" transform="translate(0,0)"/>
<path d="" fill="#DD7E6D" transform="translate(0,0)"/>
<path d="" fill="#E27D6D" transform="translate(0,0)"/>
<path d="" fill="#38C4D6" transform="translate(0,0)"/>
<path d="" fill="#45C2CE" transform="translate(0,0)"/>
<path d="" fill="#39C5D6" transform="translate(0,0)"/>
<path d="" fill="#E07B6C" transform="translate(0,0)"/>
<path d="" fill="#FEB451" transform="translate(0,0)"/>
<path d="" fill="#FE725D" transform="translate(0,0)"/>
<path d="" fill="#FC745E" transform="translate(0,0)"/>
<path d="" fill="#FEBC51" transform="translate(0,0)"/>
<path d="" fill="#FB705E" transform="translate(0,0)"/>
<path d="" fill="#39C6D4" transform="translate(0,0)"/>
<path d="" fill="#3BC8D8" transform="translate(0,0)"/>
<path d="" fill="#FEBD53" transform="translate(0,0)"/>
<path d="" fill="#F9C450" transform="translate(0,0)"/>
<path d="" fill="#51BEC7" transform="translate(0,0)"/>
<path d="" fill="#37C5D5" transform="translate(0,0)"/>
<path d="" fill="#37C5D6" transform="translate(0,0)"/>
<path d="" fill="#38C4D2" transform="translate(0,0)"/>
<path d="" fill="#37C2D1" transform="translate(0,0)"/>
<path d="" fill="#38C2D3" transform="translate(0,0)"/>
<path d="" fill="#37C1CE" transform="translate(0,0)"/>
<path d="" fill="#38BFCD" transform="translate(0,0)"/>
<path d="" fill="#FD715F" transform="translate(0,0)"/>
<path d="" fill="#FC725F" transform="translate(0,0)"/>
<path d="" fill="#FE715E" transform="translate(0,0)"/>
<path d="" fill="#38BAC9" transform="translate(0,0)"/>
<path d="" fill="#FC725D" transform="translate(0,0)"/>
<path d="" fill="#3BB9C7" transform="translate(0,0)"/>
<path d="" fill="#3BB9C7" transform="translate(0,0)"/>
<path d="" fill="#FC7160" transform="translate(0,0)"/>
<path d="" fill="#FA745B" transform="translate(0,0)"/>
<path d="" fill="#FC725D" transform="translate(0,0)"/>
<path d="" fill="#FD725F" transform="translate(0,0)"/>
<path d="" fill="#FE715D" transform="translate(0,0)"/>
<path d="" fill="#5ABAC2" transform="translate(0,0)"/>
<path d="" fill="#FC715E" transform="translate(0,0)"/>
<path d="" fill="#3FB3BE" transform="translate(0,0)"/>
<path d="" fill="#FF6F5D" transform="translate(0,0)"/>
<path d="" fill="#FD725F" transform="translate(0,0)"/>
<path d="" fill="#4EBFCA" transform="translate(0,0)"/>
<path d="" fill="#F87360" transform="translate(0,0)"/>
<path d="" fill="#4AC2CE" transform="translate(0,0)"/>
<path d="" fill="#FD745E" transform="translate(0,0)"/>
<path d="" fill="#F37865" transform="translate(0,0)"/>
<path d="" fill="#FC715D" transform="translate(0,0)"/>
<path d="" fill="#F37764" transform="translate(0,0)"/>
<path d="" fill="#3CBBCB" transform="translate(0,0)"/>
<path d="" fill="#3CBCCA" transform="translate(0,0)"/>
<path d="" fill="#FB735A" transform="translate(0,0)"/>
<path d="" fill="#F8B653" transform="translate(0,0)"/>
<path d="" fill="#F97264" transform="translate(0,0)"/>
<path d="" fill="#F57866" transform="translate(0,0)"/>
<path d="" fill="#F7AC52" transform="translate(0,0)"/>
<path d="" fill="#F4815C" transform="translate(0,0)"/>
<path d="" fill="#E67863" transform="translate(0,0)"/>
<path d="" fill="#E87766" transform="translate(0,0)"/>
<path d="" fill="#EA7558" transform="translate(0,0)"/>
<path d="" fill="#F06B5B" transform="translate(0,0)"/>
<path d="" fill="#F46C59" transform="translate(0,0)"/>
<path d="" fill="#F76D59" transform="translate(0,0)"/>
<path d="" fill="#F56957" transform="translate(0,0)"/>
<path d="" fill="#F66B59" transform="translate(0,0)"/>
<path d="" fill="#F66C58" transform="translate(0,0)"/>
<path d="" fill="#F76E57" transform="translate(0,0)"/>
<path d="" fill="#F76D58" transform="translate(0,0)"/>
<path d="" fill="#F46D58" transform="translate(0,0)"/>
<path d="" fill="#F16B58" transform="translate(0,0)"/>
<path d="" fill="#F26B58" transform="translate(0,0)"/>
<path d="" fill="#EF6B56" transform="translate(0,0)"/>
</svg>
